{"title":"Jobs 2013 HDRip XViD-VAiN","uid":8918548,"size":1476778017,"categoryP":"video","categoryS":"movies","magnet":"?xt=urn:btih:1bb1e073f0009341b297ce410bbac393f0d00a59&amp;dn=Jobs+2013+HDRip+XViD-VAiN&amp;tr=udp%3A%2F%2Ftracker.openbittorrent.com%3A80&amp;tr=udp%3A%2F%2Fopen.demonii.com%3A1337&amp;tr=udp%3A%2F%2Ftracker.coppersurfer.tk%3A6969&amp;tr=udp%3A%2F%2Fexodus.desync.com%3A6969","seeders":0,"leechers":1,"uploader":"TeX","files":2,"time":1379199411,"description":"[img]http://i.imgur.com/QsmKnrg.jpg[/img]\nVAiN . P R E S E N T S . . .\n\nJobs.2013.HDRip.XViD-VAiN\n\niMDB........: http://www.imdb.com/title/tt2357129/\nPLOT........: The story of Steve Jobs' ascension from college dropout into one of the most revered creative entrepreneurs of the 20th century.\n\n\nT E C H N i C A L . i N F O . . . \nFormat : AVI\nFormat/Info : Audio Video Interleave\nFile size : 1.38 GiB\nDuration : 2h 7mn\nOverall bit rate : 1 543 Kbps\nWriting application : VirtualDubMod 1.5.10.2 (build 2540/release)\nWriting library : VirtualDubMod build 2540/release\n\nVideo\nID : 0\nFormat : MPEG-4 Visual\nFormat profile : Advanced Simple@L5\nFormat settings, BVOP : 1\nFormat settings, QPel : No\nFormat settings, GMC : No warppoints\nFormat settings, Matrix : Default (MPEG)\nCodec ID : XVID\nCodec ID/Hint : XviD\nDuration : 2h 7mn\nBit rate : 1 340 Kbps\nWidth : 720 pixels\nHeight : 266 pixels\nDisplay aspect ratio : 2.707\nFrame rate : 29.970 fps\nColor space : YUV\nChroma subsampling : 4:2:0\nBit depth : 8 bits\nScan type : Progressive\nCompression mode : Lossy\nBits/(Pixel*Frame) : 0.233\nStream size : 1.19 GiB (87%)\nWriting library : XviD 1.2.1 (UTC 2008-12-04)\n\nAudio\nID : 1\nFormat : AC-3\nFormat/Info : Audio Coding 3\nMode extension : CM (complete main)\nFormat settings, Endianness : Big\nCodec ID : 2000\nDuration : 2h 7mn\nBit rate mode : Constant\nBit rate : 192 Kbps\nChannel(s) : 2 channels\nChannel positions : Front: L R\nSampling rate : 48.0 KHz\nBit depth : 16 bits\nCompression mode : Lossy\nStream size : 175 MiB (12%)\nAlignment : Split accross interleaves\nInterleave, duration : 33 ms (1.00 video frame)\nInterleave, preload duration : 500 ms\n\n\n\nE N C O D E R S . N O T E S . . . \n\nSOURCE......: JYK (BIG THNX)\nSAMPLE......: Yes\nADDED NOTE..: \njust a stipped down rip. down and dirty. wokring with new sors to have better optios will have subs but better q. this aint to bad and ya can haz or not\n\nall i ask is that u knob rg stop stealing my nfo's. copying my humours, details and info just makes u look stoopid. get ova it, stop being rival grps, ya e-peens can't be as big as mine no matter what u brag. go back to ur home site and keep there no one looking for generic chip quality and stoopid duper scripts. \n\n\nS C R E E N . S H O T S . . .\n\n[img]http://i.imgur.com/S9dd2dl.png[/img]\n[img]http://i.imgur.com/L5ynvaX.png[/img]","torrent":{"xt":"urn:btih:1bb1e073f0009341b297ce410bbac393f0d00a59","amp;dn":"Jobs+2013+HDRip+XViD-VAiN","amp;tr":["udp%3A%2F%2Ftracker.openbittorrent.com%3A80","udp%3A%2F%2Fopen.demonii.com%3A1337","udp%3A%2F%2Ftracker.coppersurfer.tk%3A6969","udp%3A%2F%2Fexodus.desync.com%3A6969"],"infoHash":"1bb1e073f0009341b297ce410bbac393f0d00a59","infoHashBuffer":{"type":"Buffer","data":[27,177,224,115,240,0,147,65,178,151,206,65,11,186,195,147,240,208,10,89]},"announce":[],"urlList":[]}}